<svg xmlns="http://www.w3.org/2000/svg" viewBox="0 0 20 19.51"><defs><style>.cls-1{fill:#fff;}</style></defs><title>Asset 32</title><g id="Layer_2" data-name="Layer 2"><g id="Layer_2-2" data-name="Layer 2"><path class="cls-1" d="M20,10a9.72,9.72,0,0,1-1.91,5.88,9.8,9.8,0,0,1-4.93,3.61.57.57,0,0,1-.51-.09.52.52,0,0,1-.16-.39V16.26a2.32,2.32,0,0,0-.68-1.85,8.94,8.94,0,0,0,1.33-.23,5.32,5.32,0,0,0,1.22-.51,3.64,3.64,0,0,0,1.05-.87,4,4,0,0,0,.69-1.37,6.57,6.57,0,0,0,.27-2,3.8,3.8,0,0,0-1-2.68,3.47,3.47,0,0,0-.1-2.66,1.71,1.71,0,0,0-1.05.14,7,7,0,0,0-1.2.57l-.49.31a9.4,9.4,0,0,0-5,0l-.55-.35a7.81,7.81,0,0,0-1.09-.5,1.82,1.82,0,0,0-1.12-.18A3.5,3.5,0,0,0,4.65,6.8a3.8,3.8,0,0,0-1,2.68,6.48,6.48,0,0,0,.27,2,4.18,4.18,0,0,0,.68,1.37,3.49,3.49,0,0,0,1,.87,5.31,5.31,0,0,0,1.22.51,8.94,8.94,0,0,0,1.33.23,2.11,2.11,0,0,0-.64,1.34A2.57,2.57,0,0,1,7,16a3.66,3.66,0,0,1-.74.07,1.53,1.53,0,0,1-.85-.28,2.3,2.3,0,0,1-.72-.81A2.1,2.1,0,0,0,4,14.25a1.89,1.89,0,0,0-.64-.31l-.26,0a.84.84,0,0,0-.38.06c-.07,0-.09.09-.06.15a.7.7,0,0,0,.12.18.93.93,0,0,0,.17.16l.09.07A1.57,1.57,0,0,1,3.6,15a3.26,3.26,0,0,1,.41.66l.13.3a1.65,1.65,0,0,0,.57.8,2,2,0,0,0,.87.39,5.44,5.44,0,0,0,.91.09,3.82,3.82,0,0,0,.72,0l.3-.05q0,.49,0,1.16c0,.44,0,.68,0,.7a.51.51,0,0,1-.17.39.59.59,0,0,1-.52.09,9.79,9.79,0,0,1-4.93-3.61A9.71,9.71,0,0,1,0,10,9.78,9.78,0,0,1,1.34,5,10,10,0,0,1,5,1.34,9.78,9.78,0,0,1,10,0a9.79,9.79,0,0,1,5,1.34A10,10,0,0,1,18.66,5,9.79,9.79,0,0,1,20,10Z"/></g></g></svg>