<svg xmlns="http://www.w3.org/2000/svg" viewBox="0 0 19 19"><defs><style>.cls-1{fill:#fff;}</style></defs><title>Asset 28</title><g id="Layer_2" data-name="Layer 2"><g id="Layer_2-2" data-name="Layer 2"><path class="cls-1" d="M18.28.72A2.35,2.35,0,0,0,16.56,0H2.44A2.35,2.35,0,0,0,.72.72,2.35,2.35,0,0,0,0,2.43V16.56a2.34,2.34,0,0,0,.72,1.72A2.34,2.34,0,0,0,2.44,19H16.56A2.45,2.45,0,0,0,19,16.56V2.43A2.35,2.35,0,0,0,18.28.72ZM6.82,6.85A3.73,3.73,0,0,1,9.51,5.76a3.75,3.75,0,0,1,2.7,1.09,3.61,3.61,0,0,1,0,5.23,3.74,3.74,0,0,1-2.7,1.08,3.73,3.73,0,0,1-2.69-1.08A3.5,3.5,0,0,1,5.7,9.46,3.5,3.5,0,0,1,6.82,6.85Zm10,9.21a.72.72,0,0,1-.22.54.74.74,0,0,1-.53.21H2.87a.74.74,0,0,1-.76-.75V8H3.86a5.57,5.57,0,0,0,1.49,5.67,5.77,5.77,0,0,0,4.17,1.68,6,6,0,0,0,3-.77,5.75,5.75,0,0,0,2.15-2.08,5.47,5.47,0,0,0,.79-2.88A5.33,5.33,0,0,0,15.18,8h1.67v8Zm0-11a.85.85,0,0,1-.85.85H13.84A.85.85,0,0,1,13,5V3a.84.84,0,0,1,.25-.6.81.81,0,0,1,.6-.25H16a.81.81,0,0,1,.6.25.84.84,0,0,1,.25.6Z"/></g></g></svg>