<svg xmlns="http://www.w3.org/2000/svg" viewBox="0 0 902 1002"><defs><style>.cls-1{fill:none;stroke:#404041;stroke-linecap:round;stroke-miterlimit:10;stroke-width:2px;stroke-dasharray:0 30;}</style></defs><title>Asset 27</title><g id="Layer_2" data-name="Layer 2"><g id="Layer_2-2" data-name="Layer 2"><line class="cls-1" x1="1" y1="1" x2="1" y2="1001"/><line class="cls-1" x1="31" y1="1" x2="31" y2="1001"/><line class="cls-1" x1="61" y1="1" x2="61" y2="1001"/><line class="cls-1" x1="91" y1="1" x2="91" y2="1001"/><line class="cls-1" x1="121" y1="1" x2="121" y2="1001"/><line class="cls-1" x1="151" y1="1" x2="151" y2="1001"/><line class="cls-1" x1="151" y1="1" x2="151" y2="1001"/><line class="cls-1" x1="181" y1="1" x2="181" y2="1001"/><line class="cls-1" x1="211" y1="1" x2="211" y2="1001"/><line class="cls-1" x1="241" y1="1" x2="241" y2="1001"/><line class="cls-1" x1="271" y1="1" x2="271" y2="1001"/><line class="cls-1" x1="301" y1="1" x2="301" y2="1001"/><line class="cls-1" x1="301" y1="1" x2="301" y2="1001"/><line class="cls-1" x1="331" y1="1" x2="331" y2="1001"/><line class="cls-1" x1="361" y1="1" x2="361" y2="1001"/><line class="cls-1" x1="391" y1="1" x2="391" y2="1001"/><line class="cls-1" x1="421" y1="1" x2="421" y2="1001"/><line class="cls-1" x1="451" y1="1" x2="451" y2="1001"/><line class="cls-1" x1="451" y1="1" x2="451" y2="1001"/><line class="cls-1" x1="481" y1="1" x2="481" y2="1001"/><line class="cls-1" x1="511" y1="1" x2="511" y2="1001"/><line class="cls-1" x1="541" y1="1" x2="541" y2="1001"/><line class="cls-1" x1="571" y1="1" x2="571" y2="1001"/><line class="cls-1" x1="601" y1="1" x2="601" y2="1001"/><line class="cls-1" x1="601" y1="1" x2="601" y2="1001"/><line class="cls-1" x1="631" y1="1" x2="631" y2="1001"/><line class="cls-1" x1="661" y1="1" x2="661" y2="1001"/><line class="cls-1" x1="691" y1="1" x2="691" y2="1001"/><line class="cls-1" x1="721" y1="1" x2="721" y2="1001"/><line class="cls-1" x1="751" y1="1" x2="751" y2="1001"/><line class="cls-1" x1="751" y1="1" x2="751" y2="1001"/><line class="cls-1" x1="781" y1="1" x2="781" y2="1001"/><line class="cls-1" x1="811" y1="1" x2="811" y2="1001"/><line class="cls-1" x1="841" y1="1" x2="841" y2="1001"/><line class="cls-1" x1="871" y1="1" x2="871" y2="1001"/><line class="cls-1" x1="901" y1="1" x2="901" y2="1001"/></g></g></svg>