<svg xmlns="http://www.w3.org/2000/svg" viewBox="0 0 19 19"><defs><style>.cls-1{fill:#fff;}</style></defs><title>Asset 30</title><g id="Layer_2" data-name="Layer 2"><g id="Layer_2-2" data-name="Layer 2"><path class="cls-1" d="M17.73,4.73A9.29,9.29,0,0,1,19,9.5a9.29,9.29,0,0,1-1.27,4.77,9.46,9.46,0,0,1-3.46,3.46A9.3,9.3,0,0,1,9.5,19a9.3,9.3,0,0,1-4.77-1.27,9.46,9.46,0,0,1-3.46-3.46A9.29,9.29,0,0,1,0,9.5,9.29,9.29,0,0,1,1.27,4.73,9.45,9.45,0,0,1,4.73,1.27,9.29,9.29,0,0,1,9.5,0a9.29,9.29,0,0,1,4.77,1.27A9.45,9.45,0,0,1,17.73,4.73ZM10.38,9.46q-.26-.6-.66-1.37A28.94,28.94,0,0,1,1.4,9.24a2.05,2.05,0,0,0,0,.26,8,8,0,0,0,.54,2.93,8.14,8.14,0,0,0,1.53,2.49A10.35,10.35,0,0,1,5,12.86a11,11,0,0,1,1.76-1.54q.85-.58,1.61-1A9.5,9.5,0,0,1,9.6,9.72l.46-.16.16,0ZM9.05,6.84A42.4,42.4,0,0,0,6,2.16,8.14,8.14,0,0,0,1.56,7.83,29.36,29.36,0,0,0,9.05,6.84ZM12.67,17a33.46,33.46,0,0,0-1.73-6.16h0l-.53.2q-.33.13-1.25.61a16,16,0,0,0-1.69,1,10.73,10.73,0,0,0-1.62,1.42A6.64,6.64,0,0,0,4.51,15.9l-.19-.14A8,8,0,0,0,9.5,17.61,8.1,8.1,0,0,0,12.67,17ZM7.56,1.62h0Zm7.3,1.79a7.82,7.82,0,0,0-5.36-2,8.19,8.19,0,0,0-1.92.24,35.29,35.29,0,0,1,3,4.73,11.48,11.48,0,0,0,1.61-.75,10.79,10.79,0,0,0,1.19-.76,7.82,7.82,0,0,0,.81-.71,5.47,5.47,0,0,0,.46-.5Zm2.76,6a7.94,7.94,0,0,0-1.84-5.07h0l-.24.3a7.09,7.09,0,0,1-.54.55,10.34,10.34,0,0,1-.88.75,12.62,12.62,0,0,1-1.24.8,12.64,12.64,0,0,1-1.63.8l.54,1.18.08.22a1.57,1.57,0,0,0,.09.2q.45-.06.92-.09l.91,0,.85,0,.79,0,.7.07.59.08.45.07.31.06Zm-.1,1.37a11.68,11.68,0,0,0-5.06-.36A34.85,34.85,0,0,1,14,16.23a8.12,8.12,0,0,0,2.29-2.34A8,8,0,0,0,17.52,10.79Z"/></g></g></svg>