<svg xmlns="http://www.w3.org/2000/svg" viewBox="0 0 21 18.37"><defs><style>.cls-1{fill:#fff;}</style></defs><title>Asset 29</title><g id="Layer_2" data-name="Layer 2"><g id="Layer_2-2" data-name="Layer 2"><path class="cls-1" d="M21,2.21a7,7,0,0,1-2.4.73A4.89,4.89,0,0,0,20.4.41a6.7,6.7,0,0,1-2.7,1h0A4.18,4.18,0,0,0,14.57,0a4.51,4.51,0,0,0-4.33,4.67,5,5,0,0,0,.11,1h0A12.19,12.19,0,0,1,1.17.87,4.88,4.88,0,0,0,2.48,7,2.61,2.61,0,0,1,.59,6.5a4.46,4.46,0,0,0,3.34,4.56,3.16,3.16,0,0,1-1.8.14A4.17,4.17,0,0,0,6,14.38a6.79,6.79,0,0,1-6,1.94,12.33,12.33,0,0,0,6.78,2.06c7,0,12.42-6.1,12.13-13.62v0s0,0,0-.07,0,0,0-.07A7.79,7.79,0,0,0,21,2.21Z"/></g></g></svg>