<svg xmlns="http://www.w3.org/2000/svg" viewBox="0 0 446.01 61"><defs><style>.cls-1{fill:#fff;}</style></defs><title>Asset 26</title><g id="Layer_2" data-name="Layer 2"><g id="Layer_2-2" data-name="Layer 2"><path class="cls-1" d="M309.77,51.29a19.87,19.87,0,0,1-14.37-6.11,20.95,20.95,0,0,1,0-29.18,19.94,19.94,0,0,1,28.73,0,20.59,20.59,0,0,1,4.27,6.46l.71,1.73h-3.63l-.33-.75a17.1,17.1,0,0,0-3.43-5.08,16.63,16.63,0,0,0-23.91,0,17.5,17.5,0,0,0-5,12.21,17.3,17.3,0,0,0,5,12.2,16.51,16.51,0,0,0,23.92,0,17,17,0,0,0,3.43-5l.33-.75h3.64l-.71,1.73a20.59,20.59,0,0,1-4.27,6.46,19.87,19.87,0,0,1-14.37,6.11"/><path class="cls-1" d="M354.24,51.79a20.89,20.89,0,0,1-14.92-6.28,21.27,21.27,0,0,1,0-30,20.93,20.93,0,0,1,29.89,0,21.27,21.27,0,0,1,0,30,20.87,20.87,0,0,1-15,6.27m0-39.18a17.47,17.47,0,0,0-12.52,5.3,17.83,17.83,0,0,0,0,25.18,17.5,17.5,0,0,0,25.1,0,18,18,0,0,0,0-25.18,17.54,17.54,0,0,0-12.58-5.3"/><path class="cls-1" d="M395.55,51.23H381.17V9.83h14.39c6.29,0,11.58,2.25,15.31,6.51a21.45,21.45,0,0,1,5.1,14.2,21.46,21.46,0,0,1-5.1,14.2c-3.73,4.26-9,6.5-15.31,6.5m-11-3.34h11c5.29,0,9.72-1.86,12.8-5.39a18.1,18.1,0,0,0,4.27-12c0-8.36-5.34-17.37-17.08-17.37h-11Z"/><polygon class="cls-1" points="446.01 51.23 421.91 51.23 421.91 9.83 445.9 9.83 445.9 13.16 425.3 13.16 425.3 28.81 445.45 28.81 445.45 32.2 425.3 32.2 425.3 47.9 446.01 47.9 446.01 51.23"/><path class="cls-1" d="M69.59,50H64V11.08h5.56Zm1.06-20.87,13.58-18h7.07L76.43,30.39,92.85,50H85.5l-14.86-18Z"/><path class="cls-1" d="M103.65,30.22h6.57a6.64,6.64,0,0,0,7.07-6.79c0-3.34-2.34-6.73-7.07-6.73h-8.63V50H96V11h14.19c8.46,0,12.69,6.24,12.69,12.41a11.73,11.73,0,0,1-10.08,11.91L125.14,50h-7.29L103.65,32.89Z"/><path class="cls-1" d="M132.88,16.42a19.69,19.69,0,0,1,28.11,0,20,20,0,0,1,0,28.16,19.69,19.69,0,0,1-28.11,0,20,20,0,0,1,0-28.16m24.1,4a14.32,14.32,0,0,0-10.07-4.23,14,14,0,0,0-10,4.23,14.24,14.24,0,0,0,0,20.15,14,14,0,0,0,10,4.23A14.32,14.32,0,0,0,157,20.43"/><polygon class="cls-1" points="173.07 49.98 173.07 10.97 177.41 11.02 196.4 38.46 196.4 11.02 201.96 11.02 201.96 49.98 197.51 49.98 178.69 22.76 178.69 49.98 173.07 49.98"/><path class="cls-1" d="M213.38,16.42a19.69,19.69,0,0,1,28.11,0,20,20,0,0,1,0,28.16,19.69,19.69,0,0,1-28.11,0,20,20,0,0,1,0-28.16m24.1,4A14.32,14.32,0,0,0,227.4,16.2a14,14,0,0,0-10,4.23,14.25,14.25,0,0,0,0,20.15,14,14,0,0,0,10,4.23,14.32,14.32,0,0,0,10.07-24.38"/><path class="cls-1" d="M274.83,21.09c-.78-3.51-4.56-5-8-5-2.61.05-5.51.95-7.07,2.95a5.1,5.1,0,0,0-.95,3.62c.28,4,4.68,4.51,8.85,4.9,5.34.67,12,2.06,13.47,8.29a13.92,13.92,0,0,1,.28,2.56C281.45,46,274,50.32,267,50.32c-6,0-13.3-3.56-14-10.52l-.06-1.06,5.68-.11.06.83v-.22c.39,3.62,4.79,5.51,8.41,5.51,4.17,0,8.74-2.34,8.74-6.35a6.18,6.18,0,0,0-.17-1.33c-.67-3-4.68-3.45-8.57-3.84-6.07-.61-13.19-1.95-13.8-10.07v.06a10.54,10.54,0,0,1,2.11-7.4c2.62-3.4,7.29-5.18,11.8-5.18,6,0,12.24,3.12,13.25,10.24Z"/><polygon class="cls-1" points="44.81 13 35.34 13 16.71 30.08 35.34 48 44.81 48 26.18 30.08 44.81 13"/><path class="cls-1" d="M50.35,54.06A16.27,16.27,0,0,1,40.9,57H20.49A16.38,16.38,0,0,1,4,40.72V20.31A16.41,16.41,0,0,1,20.49,4H40.9a16.3,16.3,0,0,1,10.7,3.92l3.08-2.71A20.4,20.4,0,0,0,40.9,0H20.49A20.31,20.31,0,0,0,0,20.31V40.72A20.28,20.28,0,0,0,20.49,61H40.9a20.37,20.37,0,0,0,12.5-4.14Z"/></g></g></svg>